# xmcd
#
# Track frame offsets:
#	150
#	13293
#	33399
#	44572
#	55156
#	67033
#	78604
#	90212
#	102467
#	114514
#	126315
#	136396
#	149380
#	158866
#	169252
#	179418
#	190411
#	203223
#	213660
#
# Disc length: 2993 seconds
#
# Revision: 2
# Processed by: cddbd v1.5.2PL0 Copyright (c) Steve Scherf et al.
# Submitted via: audiograbber 1.83.01
#
DISCID=220baf13
DTITLE=Various Artist - Summer Of The 60s, CD 1
DYEAR=2010
DGENRE=Pop
TTITLE0=Keren Ann - I get around
TTITLE1=The Animals - The house of the rising sun
TTITLE2=Buddy Holly - Peggy Sue
TTITLE3=Chubby Checker - Let's twist again
TTITLE4=Chuck Berry - Johnny B.Goode
TTITLE5=Gene Vincent - Be bop a lula
TTITLE6=The Troggs - Wild thing
TTITLE7=The Monkees - I'm a believer
TTITLE8=The Kingsmen - Louie Louie
TTITLE9=The Sonics - Have love, will travel
TTITLE10=Dale Hawkins - Suzy Q
TTITLE11=The Shadows - Apache
TTITLE12=Link Wray and The Wray Men - Raw-Hide
TTITLE13=Sandy Nelson - Let there be drums
TTITLE14=The Crickets - Don't ever change
TTITLE15=The Hollies - I'm alive
TTITLE16=Jeff Beck - HiHo Silver Lining
TTITLE17=Gerry and The Pacemakers - Ferry cross the mersey
TTITLE18=13th Floor Elevators - You're gonna miss me
EXTD=
EXTT0=
EXTT1=
EXTT2=
EXTT3=
EXTT4=
EXTT5=
EXTT6=
EXTT7=
EXTT8=
EXTT9=
EXTT10=
EXTT11=
EXTT12=
EXTT13=
EXTT14=
EXTT15=
EXTT16=
EXTT17=
EXTT18=
PLAYORDER=
